<svg xmlns="http://www.w3.org/2000/svg" viewBox="0 0 500 500"><g id="freepik--background-complete--inject-7"><rect x="416.78" y="398.49" width="33.12" height="0.25" style="fill:#ebebeb"></rect><rect x="322.53" y="401.21" width="8.69" height="0.25" style="fill:#ebebeb"></rect><rect x="396.59" y="389.21" width="19.19" height="0.25" style="fill:#ebebeb"></rect><rect x="52.46" y="390.89" width="43.19" height="0.25" style="fill:#ebebeb"></rect><rect x="104.56" y="390.89" width="6.33" height="0.25" style="fill:#ebebeb"></rect><rect x="131.47" y="395.11" width="93.68" height="0.25" style="fill:#ebebeb"></rect><path d="M238.4,337.8H45.3a5.71,5.71,0,0,1-5.71-5.71V60.66A5.71,5.71,0,0,1,45.3,55H238.4a5.71,5.71,0,0,1,5.71,5.71V332.09A5.71,5.71,0,0,1,238.4,337.8ZM45.3,55.2a5.47,5.47,0,0,0-5.46,5.46V332.09a5.47,5.47,0,0,0,5.46,5.46H238.4a5.47,5.47,0,0,0,5.46-5.46V60.66a5.47,5.47,0,0,0-5.46-5.46Z" style="fill:#ebebeb"></path><path d="M454.7,337.8H261.6a5.71,5.71,0,0,1-5.71-5.71V60.66A5.71,5.71,0,0,1,261.6,55H454.7a5.71,5.71,0,0,1,5.71,5.71V332.09A5.71,5.71,0,0,1,454.7,337.8ZM261.6,55.2a5.47,5.47,0,0,0-5.46,5.46V332.09a5.47,5.47,0,0,0,5.46,5.46H454.7a5.47,5.47,0,0,0,5.46-5.46V60.66a5.47,5.47,0,0,0-5.46-5.46Z" style="fill:#ebebeb"></path><rect y="382.4" width="500" height="0.25" style="fill:#ebebeb"></rect><polygon points="120.7 391.73 119.63 404.18 55.11 404.18 78.56 391.73 120.7 391.73" style="fill:#ebebeb"></polygon><polygon points="120.14 397.18 118.57 410.6 53.66 410.48 72.57 397.18 120.14 397.18" style="fill:#e0e0e0"></polygon><path d="M102,384.48l14.78,7.1s-47.82,5.26-46.79,5.19,1.68-9.61,1.68-9.61Z" style="fill:#ebebeb"></path><path d="M82.5,391.85l3.68,7.33H41c.75,0,9-7.17,9-7.17Z" style="fill:#f0f0f0"></path><path d="M84,382.4l6.26,6.66-44.05,6.05c.74-.1,6.17-8.2,6.17-8.2Z" style="fill:#f5f5f5"></path><path d="M88.06,386.6,111,393s-24.93,8.13-35.49,7.55c-6.47-.36-15.2-9.86-15.2-9.86Z" style="fill:#fafafa"></path><rect x="55.58" y="368.02" width="54.51" height="13.57" transform="translate(165.67 749.6) rotate(180)" style="fill:#ebebeb"></rect><rect x="55.76" y="368.08" width="54.51" height="13.57" transform="translate(166.03 749.72) rotate(180)" style="fill:#fff;isolation:isolate;opacity:0.1"></rect><rect x="55.58" y="368.08" width="41.84" height="13.57" transform="translate(153 749.72) rotate(180)" style="fill:#fff;isolation:isolate;opacity:0.6000000000000001"></rect><polygon points="55.84 379.86 110.1 381.54 110.04 380.17 55.82 379.46 55.84 379.86" style="fill:#e0e0e0;isolation:isolate"></polygon><polygon points="110.1 373.58 55.93 370.54 55.93 370.99 110.1 374.62 110.1 373.58" style="fill:#e0e0e0;isolation:isolate"></polygon><polygon points="110.1 369.49 55.93 370.73 55.93 371.18 110.1 370.52 110.1 369.49" style="fill:#e0e0e0;isolation:isolate"></polygon><polygon points="110.25 376.25 56.07 378.89 56.07 378.49 110.25 375.35 110.25 376.25" style="fill:#e0e0e0;isolation:isolate"></polygon><polygon points="55.71 368.19 109.88 368.24 109.88 368.69 55.71 368.69 55.71 368.19" style="fill:#e0e0e0;isolation:isolate"></polygon><rect x="59.49" y="327.62" width="54.51" height="13.57" transform="translate(173.49 668.8) rotate(180)" style="fill:#e0e0e0"></rect><rect x="59.81" y="328.16" width="54.51" height="13.57" transform="translate(174.14 669.89) rotate(180)" style="fill:#fff;isolation:isolate;opacity:0.5"></rect><rect x="59.49" y="327.68" width="41.84" height="13.57" transform="translate(160.82 668.92) rotate(180)" style="fill:#fff;isolation:isolate;opacity:0.6000000000000001"></rect><polygon points="59.76 339.46 114.01 341.14 113.94 339.77 59.73 339.06 59.76 339.46" style="fill:#e0e0e0;isolation:isolate"></polygon><polygon points="114.01 333.18 59.84 330.13 59.84 330.59 114.01 334.21 114.01 333.18" style="fill:#e0e0e0;isolation:isolate"></polygon><polygon points="114.01 329.09 59.84 330.33 59.84 330.77 114.01 330.12 114.01 329.09" style="fill:#e0e0e0;isolation:isolate"></polygon><polygon points="114.16 335.85 59.98 338.49 59.98 338.09 114.16 334.94 114.16 335.85" style="fill:#e0e0e0;isolation:isolate"></polygon><rect x="58.81" y="354.27" width="54.51" height="13.57" transform="translate(172.14 722.1) rotate(180)" style="fill:#e0e0e0"></rect><rect x="58.99" y="354.33" width="54.51" height="13.57" transform="translate(172.49 722.22) rotate(180)" style="fill:#fff;isolation:isolate;opacity:0.5"></rect><rect x="58.93" y="354.33" width="41.84" height="13.57" style="fill:#fff;isolation:isolate;opacity:0.6000000000000001"></rect><polygon points="113.09 365.71 58.87 366.42 58.81 367.79 113.06 366.11 113.09 365.71" style="fill:#e0e0e0;isolation:isolate"></polygon><polygon points="59.16 354.44 113.33 354.49 113.33 354.93 59.16 354.93 59.16 354.44" style="fill:#e0e0e0;isolation:isolate"></polygon><polygon points="58.81 360.86 112.98 357.24 112.98 356.78 58.81 359.83 58.81 360.86" style="fill:#e0e0e0;isolation:isolate"></polygon><polygon points="113.33 355.74 59.16 356.98 59.16 357.42 113.33 356.77 113.33 355.74" style="fill:#e0e0e0;isolation:isolate"></polygon><polygon points="113.48 362.5 59.3 365.14 59.3 364.74 113.48 361.59 113.48 362.5" style="fill:#e0e0e0;isolation:isolate"></polygon><polygon points="111.44 341.48 56.95 341.75 56.87 355.04 111.44 355.04 111.44 341.48" style="fill:#e0e0e0"></polygon><rect x="56.93" y="341.48" width="54.51" height="13.57" transform="translate(168.37 696.52) rotate(180)" style="fill:#fff;isolation:isolate;opacity:0.5"></rect><rect x="56.87" y="341.48" width="41.84" height="13.57" style="fill:#fff;isolation:isolate;opacity:0.6000000000000001"></rect><polygon points="100.35 341.75 56.95 341.75 56.95 343.13 99.42 343.13 100.35 341.75" style="fill:#e0e0e0;isolation:isolate"></polygon><polygon points="111.13 347.31 56.95 347.81 56.95 348.21 111.13 348.21 111.13 347.31" style="fill:#e0e0e0;isolation:isolate"></polygon><polygon points="56.95 353.58 111.13 350.94 111.13 351.34 56.95 354.49 56.95 353.58" style="fill:#e0e0e0;isolation:isolate"></polygon><polygon points="56.95 348.49 111.13 349.57 111.13 349.95 56.95 349.39 56.95 348.49" style="fill:#e0e0e0;isolation:isolate"></polygon><rect x="71.19" y="311.97" width="54.17" height="6.83" style="fill:#e0e0e0"></rect><rect x="71.19" y="311.97" width="54.17" height="6.83" style="fill:#fff;isolation:isolate;opacity:0.5"></rect><rect x="71.19" y="311.97" width="43.17" height="6.83" style="fill:#fff;isolation:isolate;opacity:0.6000000000000001"></rect><polygon points="125.39 316.81 71.22 317.08 71.22 317.28 125.39 317.28 125.39 316.81" style="fill:#e0e0e0;isolation:isolate"></polygon><polygon points="71.22 314.26 125.39 312.88 125.39 313.09 71.22 314.73 71.22 314.26" style="fill:#e0e0e0;isolation:isolate"></polygon><polygon points="71.04 313.89 125.21 314.44 125.21 314.65 71.04 314.35 71.04 313.89" style="fill:#e0e0e0;isolation:isolate"></polygon><rect x="63.61" y="308.96" width="54.17" height="3.29" style="fill:#e0e0e0"></rect><rect x="63.61" y="308.99" width="54.17" height="3.26" style="fill:#fff;isolation:isolate;opacity:0.5"></rect><rect x="63.61" y="308.78" width="43.17" height="3.47" style="fill:#fff;isolation:isolate;opacity:0.6000000000000001"></rect><polygon points="63.64 311.47 117.81 310.09 117.81 310.3 63.64 311.94 63.64 311.47" style="fill:#e0e0e0;isolation:isolate"></polygon><polygon points="63.64 309.82 117.81 310.37 117.81 310.58 63.64 310.28 63.64 309.82" style="fill:#e0e0e0;isolation:isolate"></polygon><rect x="68.66" y="305.6" width="54.17" height="3.29" style="fill:#e0e0e0"></rect><rect x="68.66" y="305.63" width="54.17" height="3.26" style="fill:#fff;isolation:isolate;opacity:0.5"></rect><rect x="68.66" y="305.42" width="43.17" height="3.47" style="fill:#fff;isolation:isolate;opacity:0.6000000000000001"></rect><polygon points="68.69 307.09 122.87 307.75 122.86 307.95 68.67 307.55 68.69 307.09" style="fill:#e0e0e0;isolation:isolate"></polygon><polygon points="68.69 306.45 122.85 307.01 122.85 307.22 68.69 306.92 68.69 306.45" style="fill:#e0e0e0;isolation:isolate"></polygon><rect x="67.53" y="318.8" width="54.17" height="8.8" style="fill:#e0e0e0"></rect><rect x="67.53" y="318.8" width="54.17" height="8.8" style="fill:#fff;isolation:isolate;opacity:0.5"></rect><rect x="67.53" y="318.8" width="41.8" height="8.8" style="fill:#fff;isolation:isolate;opacity:0.6000000000000001"></rect><polygon points="121.35 321.53 67.18 321.23 67.18 320.99 121.35 320.99 121.35 321.53" style="fill:#e0e0e0;isolation:isolate"></polygon><polygon points="67.56 322.81 121.72 324.4 121.72 324.16 67.56 322.27 67.56 322.81" style="fill:#e0e0e0;isolation:isolate"></polygon><polygon points="121.72 318.81 70.63 318.81 71.76 319.89 121.72 319.89 121.72 318.81" style="fill:#e0e0e0;isolation:isolate"></polygon><polygon points="67.74 326.24 121.91 325.58 121.91 325.35 67.74 325.69 67.74 326.24" style="fill:#e0e0e0;isolation:isolate"></polygon><rect x="84.16" y="83.75" width="333.81" height="197.33" style="fill:#ebebeb"></rect><path d="M418.48,281.58H83.66V83.25H418.48Zm-333.82-1H417.48V84.25H84.66Z" style="fill:#e0e0e0"></path><path d="M417.31,198.85v77.69H404c-27.28,0-66.88-.56-106.89-2.61-13.64-.68-27.34-1.56-40.61-2.63-3.84-.34-7.67-.67-11.43-1l-1.82-.16c-3.86-.38-7.69-.77-11.45-1.18-31.25-3.45-58-8.43-72.92-15.59h0l0,0-1.58-.79-1.22-.67-1.32-.77c-.43-.26-.84-.53-1.25-.79s-.74-.53-1.09-.79-.71-.53-1-.79-.65-.56-1-.84-.6-.56-.87-.84a11.37,11.37,0,0,1-.93-1.08l-.51-.66a8.07,8.07,0,0,1-.55-.88,9.13,9.13,0,0,1-.84-1.84,6.4,6.4,0,0,1-.26-.91c-.07-.3-.11-.61-.15-.91a9.33,9.33,0,0,1,.3-3.68c.07-.22.13-.44.22-.67s.28-.76.45-1.13a4.3,4.3,0,0,1,.24-.48c.19-.39.41-.78.65-1.19a25.8,25.8,0,0,1,4.33-5.19s.69-.37,2.19-1c.34-.13.73-.3,1.16-.48,1.44-.62,3.42-1.38,5.92-2.27h0l1.06-.37,1.13-.39c1.55-.54,3.28-1.1,5.17-1.69l3-.89c.73-.23,1.49-.43,2.27-.66,2-.57,4.15-1.15,6.45-1.74.65-.17,1.3-.34,2-.5,1.21-.32,2.47-.64,3.79-.93,2.25-.56,4.65-1.12,7.16-1.66l4.94-1.06h0c1.09-.22,2.21-.46,3.34-.68,4.61-.93,9.57-1.86,15-2.77,1-.19,2-.36,3-.52,3.75-.62,7.71-1.23,11.83-1.84l2.77-.41,4-.56c1.54-.2,3.1-.43,4.68-.63.6-.08,1.21-.17,1.82-.24q5.52-.74,11.43-1.4l.67-.07,4-.45c4.74-.52,9.64-1,14.75-1.5h0l3.07-.28c1.35-.13,2.73-.26,4.12-.37,1.23-.11,2.46-.23,3.7-.32s2.42-.2,3.64-.3c2.57-.22,5.17-.41,7.83-.61q11-.81,23.08-1.49,5-.27,10.13-.52c2.43-.13,4.92-.24,7.43-.33l3.79-.17,6-.22c1.87-.08,3.75-.15,5.65-.21l7.3-.22c7-.2,14.18-.37,21.59-.48,2.83-.06,5.69-.09,8.57-.13l3.42.11,8.75.3Z" style="fill:#e0e0e0"></path><circle cx="186.61" cy="170.56" r="20.06" style="fill:#fff"></circle><polygon points="96.23 88.51 178.29 169.23 128.4 88.51 96.23 88.51" style="fill:#fff"></polygon><polygon points="191.06 88.51 189.49 159.87 216.61 88.51 191.06 88.51" style="fill:#fff"></polygon><polygon points="197.66 165.73 322.51 88.51 382.16 88.51 197.66 169.23 197.66 165.73" style="fill:#fff"></polygon><polygon points="200.76 155.04 251.86 88.51 271.06 88.51 200.76 155.04" style="fill:#fff"></polygon><polygon points="178.29 155.04 177.66 152.61 161.03 88.51 169.67 88.51 177.96 152.46 178.29 155.04" style="fill:#fff"></polygon><path d="M417.31,156.29v70.58L404,226.44,391,226c-7,.07-13.75.2-20.35.35l-6.54.17c-9.63.26-18.87.57-27.73,1q-3.06.12-6.08.28c-2,.09-4,.19-5.94.3-1.51.07-3,.15-4.48.24-2.36.13-4.7.26-7,.41s-4.27.26-6.39.41-4.17.28-6.21.42l-4.07.3c-1.08.08-2.14.15-3.2.24-5.31.41-10.42.86-15.37,1.3l-4.4.41-4.31.43c-2.44.24-4.82.48-7.14.74l-2.21.25-2.88.31-.13,0-6.54.78c-.86.09-1.71.2-2.55.32l-2.34.29c-.48.06-1,.13-1.41.17a1.77,1.77,0,0,1-.3,0,.22.22,0,0,1-.11,0h0c-.26,0-.52.06-.8.1-.82.09-1.62.2-2.42.31s-1.43.19-2.13.3h-.06l-4.83.69c-.41,0-.82.11-1.21.18l-5.2.77c-3.74.57-7.31,1.17-10.71,1.74-1.32.23-2.62.45-3.9.69s-2.4.43-3.57.65-2.32.43-3.45.65l-3.15.62c-1.5.29-3,.59-4.36.89-.6.11-1.17.24-1.75.37-7.47,1.6-13.83,3.16-19.22,4.61-.81.22-1.63.44-2.41.67-1.45.41-2.83.81-4.13,1.2-1,.3-2,.62-3,.92-.73.22-1.45.44-2.12.68l-1.67.56c-.84.26-1.62.54-2.34.8l-2,.72h0a65.44,65.44,0,0,0-7.32,3.09c-9.05,8.64-8.44,12.28-.19,17.51q1.53,1,3.42,2l-56.46-.06H82.65V123.69c.57.19,1.13.39,1.69.62a55.16,55.16,0,0,1,14,8c103.72,81.75,173.31,23.25,191.56,27.56,8.79,2.08,47.45,18,49.51,19.72,4.11,3.33,8.5,6,13.63,7.16S368.64,182,378.12,176c7.11-4.55,13.73-9.18,17.37-11,2.83-1.4,5.67-2.85,8.55-4.17A53.68,53.68,0,0,1,417.31,156.29Z" style="fill:#e0e0e0"></path><path d="M404,198.41l13.27.44v28L404,226.45,391,226q-10.45.12-20.35.36l-6.54.16q-14.44.39-27.73,1c-2,.07-4.07.17-6.07.28s-4,.18-5.95.3c-1.51.07-3,.14-4.48.24-2.36.13-4.7.26-7,.41l-6.39.4-6.21.43-4.07.3c-1.08.07-2.13.15-3.19.24-5.32.41-10.43.86-15.37,1.3l-4.41.41-4.31.43c-2.43.24-4.81.48-7.14.74l-2.21.24-3,.34-6.54.78c-.85.09-1.71.2-2.55.31l-2.34.28c-.61.1-1.22.17-1.82.24l-.8.12c-.81.09-1.61.2-2.41.31s-1.43.19-2.14.3h-.06l-4.83.69-1.21.16-5.2.78c-3.73.58-7.3,1.18-10.7,1.75-1.32.22-2.62.45-3.91.69s-2.39.43-3.56.65-2.33.43-3.46.65l-3.14.61c-1.51.3-3,.6-4.37.9-.59.11-1.17.24-1.75.37-7.47,1.6-13.82,3.16-19.21,4.61-.82.22-1.64.44-2.42.67-1.45.4-2.82.81-4.12,1.2-1,.3-2,.62-3,.91-.72.23-1.45.45-2.12.69l-1.67.56c-.84.26-1.62.54-2.34.8l-2,.72h0l0,0-1.58-.79-1.22-.67-1.32-.77c-.43-.26-.84-.53-1.25-.79s-.74-.53-1.09-.79-.71-.53-1-.79-.65-.56-1-.84-.6-.56-.87-.84a11.37,11.37,0,0,1-.93-1.08l-.51-.66a8.07,8.07,0,0,1-.55-.88,9.13,9.13,0,0,1-.84-1.84,6.4,6.4,0,0,1-.26-.91c-.07-.3-.11-.61-.15-.91a9.33,9.33,0,0,1,.3-3.68c.07-.22.13-.44.22-.67s.28-.76.45-1.13a4.3,4.3,0,0,1,.24-.48c.19-.39.41-.78.65-1.19a25.8,25.8,0,0,1,4.33-5.19s.69-.37,2.19-1c.34-.15.73-.32,1.16-.48,1.44-.62,3.42-1.38,5.92-2.27h0l1.06-.37,1.13-.39c1.55-.54,3.28-1.1,5.17-1.69,1-.28,2-.6,3-.89.73-.23,1.49-.43,2.27-.66,2-.57,4.15-1.15,6.45-1.74.65-.17,1.3-.34,2-.5,1.21-.32,2.47-.64,3.79-.93,2.25-.56,4.65-1.12,7.16-1.66l4.94-1.06h0c1.09-.22,2.21-.46,3.34-.68,4.61-.93,9.57-1.86,15-2.77,1-.19,2-.36,3-.52,3.75-.62,7.71-1.23,11.83-1.84l2.77-.41,4-.56c1.54-.2,3.1-.43,4.68-.63.6-.08,1.21-.17,1.82-.24q5.52-.74,11.43-1.4l.67-.07,4-.45c4.74-.52,9.64-1,14.75-1.5h0l3.07-.28c1.35-.13,2.73-.26,4.12-.37,1.23-.11,2.46-.23,3.7-.32s2.42-.2,3.64-.3c2.57-.22,5.17-.41,7.83-.61q11-.81,23.08-1.49,5-.27,10.13-.52c2.43-.13,4.92-.24,7.43-.33l3.79-.17,6-.22c1.87-.08,3.75-.15,5.65-.21l7.3-.22c7-.2,14.18-.37,21.59-.48,2.83-.06,5.69-.09,8.57-.13l3.42.11Z" style="fill:#ebebeb"></path><path d="M82.65,276.27h1.69l14,0,133.49.16,7,0h6.24l5.43,0h6.13l147.37.19h13.27v-13.6A125.16,125.16,0,0,0,404,259.6q-6.18-1.29-13.75-2.23c-28.19-3.48-79.17-10.71-133.62-18.7l-.13,0L245.11,237c-.58-.09-1.13-.17-1.71-.24a.22.22,0,0,0-.11,0l-5.35-.8h-.06l-6-.89c-23.77-3.49-47.63-7.06-70.06-10.41h0c-23.27-3.49-45-6.76-63.41-9.55l-14-2.12-1.69-.26v63.58Z" style="fill:#f0f0f0"></path><path d="M417.31,140.39v73.72c-3.84.47-8.23.84-13.27,1q-3.26.15-6.87.15c-8.36.08-18.2-.3-29.77-1.32a1.1,1.1,0,0,1-.26,0c-12.32-1.06-26.62-2.86-43.16-5.63l-.52-.07c-8.92-1.51-18.49-3.27-28.76-5.37,0,0,1.3-.32,3.64-1.1,7-2.3,23-8.59,41.09-22.19a173.44,173.44,0,0,0,34.79-35.07,51.16,51.16,0,0,1,5.8-6.65l.44-.41c.65-.59,1.32-1.17,2-1.69a29.4,29.4,0,0,1,2.94-2.14c6.48-4.12,12.78-4.38,18.67-2.23C408.76,133.1,413.23,136.36,417.31,140.39Z" style="fill:#f0f0f0"></path><path d="M367.13,214h0a58.48,58.48,0,0,0,24.41-33.61l1.29-4.79,4.36,40S379.87,215.49,367.13,214Z" style="fill:#fafafa"></path><path d="M385.36,133.64S379,143,388.6,142.09c3.9-.38-.3,11.53-6.64,25.78-12.79,28.73-27.92,44.81-58,40.46-10.84-1.57-48-4.67-48-4.67h0c38.61-15,74.14-38.06,104.49-66.19a25.43,25.43,0,0,1,4-3.07Z" style="fill:#fafafa"></path><path d="M422.31,281.69H77.69V78.51H422.31Zm-334.62-10H412.31V88.51H87.69Z" style="fill:#f5f5f5"></path><rect x="87.69" y="88.51" width="5.06" height="183.18" style="fill:#e0e0e0"></rect><rect x="407.34" y="88.51" width="5.06" height="183.18" style="fill:#e0e0e0"></rect></g><g id="freepik--Shadow--inject-7"><ellipse id="freepik--path--inject-7" cx="250" cy="415.69" rx="193.89" ry="11.32" style="fill:#f5f5f5"></ellipse></g><g id="freepik--Cushion--inject-7"><path d="M304.44,403v9.55c0,5.22-27.11,9.45-60.55,9.45s-60.56-4.23-60.56-9.45V403c0,5.21,27.11,9.44,60.56,9.44S304.44,408.25,304.44,403Z" style="fill:#263238"></path><path d="M304.44,403c0,5.21-27.11,9.44-60.55,9.44s-60.56-4.23-60.56-9.44,27.11-9.45,60.56-9.45S304.44,397.82,304.44,403Z" style="fill:#263238"></path><path d="M304.44,403c0,5.21-27.11,9.44-60.55,9.44s-60.56-4.23-60.56-9.44,27.11-9.45,60.56-9.45S304.44,397.82,304.44,403Z" style="fill:#fff;opacity:0.2"></path></g><g id="freepik--Table--inject-7"><g id="freepik--Group--inject-7"><polygon points="364.47 328.48 364.47 417.08 359.92 417.08 354.2 328.48 364.47 328.48" style="fill:#004BFF"></polygon><polygon points="364.47 328.48 364.47 417.08 359.92 417.08 354.2 328.48 364.47 328.48" style="fill:#fff;opacity:0.4"></polygon><polygon points="141 330.82 141 417.11 145.55 417.11 151.27 330.82 141 330.82" style="fill:#004BFF"></polygon><g style="opacity:0.6000000000000001"><polygon points="141 330.82 141 417.11 145.55 417.11 151.27 330.82 141 330.82" style="fill:#fff;opacity:0.4"></polygon></g><rect x="83.81" y="317.01" width="338.88" height="7.66" style="fill:#004BFF"></rect><rect x="83.81" y="317.01" width="338.88" height="7.66" style="fill:#fff;opacity:0.6000000000000001"></rect><polygon points="106.1 332.87 398.69 332.87 410.56 324.67 94.23 324.67 106.1 332.87" style="fill:#004BFF"></polygon><polygon points="106.1 332.87 398.69 332.87 410.56 324.67 94.23 324.67 106.1 332.87" style="fill:#fff;opacity:0.4"></polygon><polygon points="387.96 323.68 387.96 417.06 383.42 417.06 377.69 323.68 387.96 323.68" style="fill:#004BFF"></polygon><polygon points="387.96 323.68 387.96 417.06 383.42 417.06 377.69 323.68 387.96 323.68" style="fill:#fff;opacity:0.6000000000000001"></polygon><polygon points="115.22 322.51 115.22 417.08 119.77 417.08 125.49 322.51 115.22 322.51" style="fill:#004BFF"></polygon><polygon points="115.22 322.51 115.22 417.08 119.77 417.08 125.49 322.51 115.22 322.51" style="fill:#fff;opacity:0.6000000000000001"></polygon></g><path d="M118.47,302.14l.54,1a3.54,3.54,0,0,1,.47,1.76v5.57c0,3.4,3.72,6.18,8.29,6.18H129c3.34,0,6.19-1.47,7.51-3.59a2.71,2.71,0,0,0,1-.46l3.23-2.41a1.67,1.67,0,0,0,.74-1.34v-3c0-1-1.14-1.89-2.54-1.89h-1.7c-.09-.2.1-.52.35-.84l.06-.06a7.05,7.05,0,0,1,.88-.85l.07-.06s-.15-.7-1.85-.34c-.49.1-1,.22-1.38.34l-.19.06v0l-.13,0a6.93,6.93,0,0,0-4.41-.06,6.92,6.92,0,0,0-4.08,0c.1,0-.1,0,0,0a7,7,0,0,0-4.29.1h-.59c-.43-.12-.9-.24-1.4-.34C118.61,301.44,118.47,302.14,118.47,302.14Zm18.71,9.59c0-.07.07-4.47.08-6.34,0-.46.5-.83,1.13-.83h.7c.88,0,1.6.55,1.6,1.2v2.74c0,.9,0,.86-.91,1.51Z" style="fill:#004BFF"></path><path d="M120.88,284.24c.42,2.16,2.15,3.81,3.9,5.15s3.66,2.6,4.75,4.52,1,4.74-.89,5.91a6.59,6.59,0,0,0,.61-11.18c-1.58-1.11-3.65-1.52-5-3a5.76,5.76,0,0,1-1.17-4.87,26.38,26.38,0,0,1,1.46-4.11C122.26,277.3,120.42,281.82,120.88,284.24Z" style="fill:#004BFF"></path><path d="M126.41,278.44a15.52,15.52,0,0,0,2.05-5.32c.22-1.89-2-5-2-5a8,8,0,0,1,1.86,11.8,15.19,15.19,0,0,1-3.36,2.95C124.62,281.33,125.68,279.8,126.41,278.44Z" style="fill:#004BFF"></path><path d="M120.88,284.24c.42,2.16,2.15,3.81,3.9,5.15s3.66,2.6,4.75,4.52,1,4.74-.89,5.91a6.59,6.59,0,0,0,.61-11.18c-1.58-1.11-3.65-1.52-5-3a5.76,5.76,0,0,1-1.17-4.87,26.38,26.38,0,0,1,1.46-4.11C122.26,277.3,120.42,281.82,120.88,284.24Z" style="fill:#fff;opacity:0.6000000000000001"></path><path d="M126.41,278.44a15.52,15.52,0,0,0,2.05-5.32c.22-1.89-2-5-2-5a8,8,0,0,1,1.86,11.8,15.19,15.19,0,0,1-3.36,2.95C124.62,281.33,125.68,279.8,126.41,278.44Z" style="fill:#fff;opacity:0.6000000000000001"></path><path d="M125,268.65a10.08,10.08,0,0,1-1.32-3.42C123.58,264,125,262,125,262a5.15,5.15,0,0,0-1.19,7.58,9.71,9.71,0,0,0,2.15,1.9C126.19,270.5,125.5,269.52,125,268.65Z" style="fill:#004BFF"></path><path d="M125,268.65a10.08,10.08,0,0,1-1.32-3.42C123.58,264,125,262,125,262a5.15,5.15,0,0,0-1.19,7.58,9.71,9.71,0,0,0,2.15,1.9C126.19,270.5,125.5,269.52,125,268.65Z" style="fill:#fff;opacity:0.6000000000000001"></path><path d="M384.42,314.3H326.47s1.34-7,2.11-7.2,10.61-7.94,21.52-3.57c2.39.94,4.11,1.66,5.35,2.18,1.23-.52,3-1.24,5.34-2.18,10.92-4.37,20.77,3.41,21.53,3.57S384.42,314.3,384.42,314.3Z" style="fill:#004BFF"></path><path d="M384.42,314.3H326.47l0-.17c.22-1.09,1.38-6.88,2.08-7a.43.43,0,0,0,.13-.05c1.38-.68,10.89-7.73,21.39-3.53,2.39,1,4.11,1.66,5.34,2.19,1.24-.53,3-1.24,5.35-2.19,10.92-4.36,20.77,3.42,21.53,3.58S384.42,314.3,384.42,314.3Z" style="fill:#fff;opacity:0.6000000000000001"></path><path d="M391,314.3H332.39s1.35-7.12,2.13-7.29,10.74-6.95,21.78-2.54c2.42,1,5.41,4.69,5.41,4.69s3-3.73,5.41-4.69c11.05-4.41,21,2.38,21.8,2.54S391,314.3,391,314.3Z" style="fill:#004BFF"></path><path d="M391,314.3H332.39s1.35-7.12,2.13-7.29,10.74-6.95,21.78-2.54c2.42,1,5.41,4.69,5.41,4.69s3-3.73,5.41-4.69c11.05-4.41,21,2.38,21.8,2.54S391,314.3,391,314.3Z" style="fill:#fff;opacity:0.8"></path><polygon points="361.98 311.12 360.11 314.5 364.52 314.5 361.98 311.12" style="fill:#004BFF"></polygon><g style="opacity:0.30000000000000004"><polygon points="361.98 311.12 360.11 314.5 364.52 314.5 361.98 311.12"></polygon></g><path d="M334.44,307.05a13,13,0,0,0-.93,2.51c-.55,2.14-1.12,4.74-1.12,4.74h-5.92l0-.17c.22-1.09,1.38-6.88,2.08-7a.43.43,0,0,0,.13-.05Z" style="opacity:0.1"></path><path d="M393.28,316.47l-28.76.67-.06-.06a3.23,3.23,0,0,0-4.28,0l-.06.06-29.62-.39-7.48-.09.56-2.56h36.54a3.22,3.22,0,0,1,4.4,0l28,0Z" style="fill:#004BFF"></path><g style="opacity:0.30000000000000004"><polygon points="331.08 314.1 330.5 316.75 323.02 316.66 323.59 314.1 331.08 314.1"></polygon></g><path d="M364.52,309.54s4.51-5.18,10-4.22C374.5,305.32,370.67,304.84,364.52,309.54Z" style="fill:#004BFF"></path><path d="M364.52,309.54s4.51-5.18,10-4.22C374.5,305.32,370.67,304.84,364.52,309.54Z" style="fill:#fff;opacity:0.4"></path><path d="M353.78,311.92s-6-3.28-10.83-.47C343,311.45,346.37,309.66,353.78,311.92Z" style="fill:#004BFF"></path><path d="M353.78,311.92s-6-3.28-10.83-.47C343,311.45,346.37,309.66,353.78,311.92Z" style="fill:#fff;opacity:0.4"></path><path d="M359.49,310.15s-4.83-4.89-10.23-3.59C349.26,306.56,353.06,305.84,359.49,310.15Z" style="fill:#004BFF"></path><path d="M359.49,310.15s-4.83-4.89-10.23-3.59C349.26,306.56,353.06,305.84,359.49,310.15Z" style="fill:#fff;opacity:0.4"></path><path d="M371.71,309.46s6-3.31,10.83-.53C382.54,308.93,379.1,307.16,371.71,309.46Z" style="fill:#004BFF"></path><path d="M371.71,309.46s6-3.31,10.83-.53C382.54,308.93,379.1,307.16,371.71,309.46Z" style="fill:#fff;opacity:0.4"></path></g><g id="freepik--plant-2--inject-7"><path d="M423.63,405.61h.05a.36.36,0,0,0,.32-.39c0-.06,0-.76,0-2,0-1.79,0-5.54.3-10.56a1.28,1.28,0,0,1,0-.21c.32-5.61.87-11.11,1.63-16.37.71-4.9,1.63-9.65,2.71-14.12a115.2,115.2,0,0,1,3.4-11.36v0h0c.2-.55.4-1.1.61-1.65s.35-.89.53-1.34c.46-1.15.89-2.26,1.26-3.29.82-2.27,1.56-4.54,2.2-6.74.38-1.32.73-2.63,1-3.87a85.57,85.57,0,0,0,2.3-14.41c.13-1.91.19-3.82.17-5.68a54.15,54.15,0,0,0-.36-5.83c0-.14,0-.26,0-.39l0-.18a.35.35,0,0,0-.59-.27.39.39,0,0,0-.11.34h0l0,.19c0,.13,0,.26.05.4a55,55,0,0,1,.35,5.75c0,1.84,0,3.73-.17,5.62A85.16,85.16,0,0,1,437,333.55c-.3,1.24-.64,2.53-1,3.84-.63,2.19-1.37,4.44-2.19,6.69-.37,1-.79,2.13-1.25,3.28-.18.45-.36.9-.53,1.35s-.42,1.1-.62,1.65v0h0a114.16,114.16,0,0,0-3.42,11.44c-1.09,4.49-2,9.27-2.72,14.19-.77,5.28-1.32,10.8-1.64,16.41a2,2,0,0,0,0,.25c-.29,5-.31,8.79-.3,10.59,0,1.22,0,2,0,2A.37.37,0,0,0,423.63,405.61Z" style="fill:#004BFF"></path><path d="M439.37,307.34h0s0,0,0,0a11.06,11.06,0,0,0-1.89-1.59,10.81,10.81,0,0,0-2.42-1.17" style="fill:#004BFF"></path><path d="M439.36,307.69a.24.24,0,0,0,.14,0,.35.35,0,0,0,.2-.45.37.37,0,0,0-.07-.12l0,0h0a12,12,0,0,0-2-1.64,11.33,11.33,0,0,0-2.51-1.21.36.36,0,0,0-.23.68,10.13,10.13,0,0,1,2.35,1.13,10.39,10.39,0,0,1,1.82,1.53h0A.35.35,0,0,0,439.36,307.69Z" style="fill:#004BFF"></path><path d="M439.77,314a.33.33,0,0,0,.23-.07l2.48-1.87a.36.36,0,1,0-.43-.57l-2.48,1.87a.35.35,0,0,0-.07.5A.35.35,0,0,0,439.77,314Z" style="fill:#004BFF"></path><path d="M434.09,344.6a.38.38,0,0,0,.37-.35h0a9,9,0,0,0-.4-2,9.32,9.32,0,0,0-1.2-2.53,9.92,9.92,0,0,0-1.36-1.61.36.36,0,0,0-.51,0,.35.35,0,0,0,0,.5,9.3,9.3,0,0,1,1.26,1.49,8.72,8.72,0,0,1,1.11,2.35,8.15,8.15,0,0,1,.37,1.75.33.33,0,0,0,.32.36Z" style="fill:#004BFF"></path><path d="M431.68,350.87a.36.36,0,0,0,.33-.2,6,6,0,0,1,3.69-3,.36.36,0,0,0,.24-.44.35.35,0,0,0-.44-.24,6.68,6.68,0,0,0-4.12,3.4.36.36,0,0,0,.15.48Z" style="fill:#004BFF"></path><path d="M424.84,382.22c.85-.86,1.74-4.33,2.22-6.2.12-.44.22-.82.3-1.1" style="fill:#004BFF"></path><path d="M424.82,382.58a.35.35,0,0,0,.27-.11c.85-.85,1.64-3.73,2.32-6.36.11-.44.21-.82.29-1.09a.36.36,0,0,0-.25-.44.36.36,0,0,0-.44.25l-.29,1.11c-.44,1.7-1.35,5.24-2.14,6a.37.37,0,0,0,.24.61Z" style="fill:#004BFF"></path><path d="M434.3,367.61c.71,3.36-6.87,8.94-6.87,8.94s-9.21-2-9.92-5.35,2.11-8.48,6.75-9.47S433.58,364.26,434.3,367.61Z" style="fill:#004BFF"></path><path d="M445.64,328.71c-1.2,3.39-8.08,5.26-8.08,5.26s-4.16-5.79-3-9.18,5.22-6.87,8.27-5.79S446.84,325.33,445.64,328.71Z" style="fill:#004BFF"></path><path d="M427.1,338.24a8.66,8.66,0,0,0,2.71,1.87,3,3,0,0,0,3.11-.44c1-.95.89-2.57.44-3.86-.9-2.56-4.65-7.11-7.92-6.2C420.72,330.94,425.19,336.55,427.1,338.24Z" style="fill:#004BFF"></path><path d="M435.88,345.35c-.66.69-1.38,1.57-1.13,2.5a1.92,1.92,0,0,0,2,1.22,5.6,5.6,0,0,0,2.36-.9c1.71-1,5.23-3,3.31-5.42S437.29,343.9,435.88,345.35Z" style="fill:#004BFF"></path><path d="M435,303.09c-1,0-2-.44-3-.46s-2.17.67-2,1.66,1.22,1.32,2.13,1.46a18.19,18.19,0,0,0,4.72.1,1.41,1.41,0,0,0,1-.4c.46-.55-.11-1.41-.78-1.68a9.78,9.78,0,0,1-2-.68Z" style="fill:#004BFF"></path><path d="M444.1,310.8c1,.11,2-.22,3-.14s2.09.92,1.85,1.89-1.36,1.17-2.28,1.21a17.76,17.76,0,0,1-4.71-.44,1.43,1.43,0,0,1-.94-.5c-.39-.6.27-1.39,1-1.58a10.31,10.31,0,0,0,2.1-.45Z" style="fill:#004BFF"></path><path d="M439.59,308.68h0a.36.36,0,0,0,.35-.36c0-1.95.24-3.81.62-3.9a.36.36,0,0,0,.26-.43.36.36,0,0,0-.43-.26c-1.15.28-1.19,3.31-1.16,4.61A.35.35,0,0,0,439.59,308.68Z" style="fill:#004BFF"></path><path d="M439.13,304.09a8.74,8.74,0,0,1,2.78-3.42c1.27-.76,3.2-.65,4,.62s-.3,3.37-1.86,3.95a8.55,8.55,0,0,1-4.9-.17c0-.24,0-.49,0-.73Z" style="fill:#004BFF"></path><path d="M416,416.88h16.19l1.8-2.23a28.94,28.94,0,0,0,6.87-17.55l0-.53H407.31c0,6.55,2.53,13,7.37,18.74Z" style="fill:#004BFF"></path><path d="M416,416.88h16.19l1.8-2.23a28.94,28.94,0,0,0,6.87-17.55l0-.53H407.31c0,6.55,2.53,13,7.37,18.74Z" style="fill:#fff;opacity:0.4"></path></g><g id="freepik--plant-1--inject-7"><path d="M95.77,376.85l2-.83a2.58,2.58,0,0,0,2.58,1.1s.25.22.24.23a1.63,1.63,0,0,0-.57-1.79,2.88,2.88,0,0,0-1.9-.51,2.76,2.76,0,0,0-.54-2.43,2,2,0,0,0-.72,1.4,1.71,1.71,0,0,0,.46,1.38,5.11,5.11,0,0,0-2.13,1C95.39,376.59,95.51,376.7,95.77,376.85Z" style="fill:#004BFF"></path><path d="M95.77,376.85l2-.83a2.58,2.58,0,0,0,2.58,1.1s.25.22.24.23a1.63,1.63,0,0,0-.57-1.79,2.88,2.88,0,0,0-1.9-.51,2.76,2.76,0,0,0-.54-2.43,2,2,0,0,0-.72,1.4,1.71,1.71,0,0,0,.46,1.38,5.11,5.11,0,0,0-2.13,1C95.39,376.59,95.51,376.7,95.77,376.85Z" style="fill:#fff;opacity:0.1"></path><path d="M71.38,381.8a26.65,26.65,0,0,0-11.12-7.11c-.13-.48-.67-.8-.81-1.28a27.47,27.47,0,0,1,13.27,7C72.36,381.07,71.74,381.18,71.38,381.8Z" style="fill:#263238"></path><g style="opacity:0.30000000000000004"><path d="M71.38,381.8a26.65,26.65,0,0,0-11.12-7.11c-.13-.48-.67-.8-.81-1.28a27.47,27.47,0,0,1,13.27,7C72.36,381.07,71.74,381.18,71.38,381.8Z" style="fill:#fff"></path></g><path d="M75.37,347.51c-.52,1.3.27,3.17,1.91,3.13-.71-1.54-5.06-1.93-6.28-.57-.52.59.08,1.65.71,2.13a7.27,7.27,0,0,0,2.13.81c-2.38-.85-6,2-6,4.15a1.89,1.89,0,0,0-2.44.91c-.26,1,.38,2.13,2.12,1.9A3.72,3.72,0,0,0,66.19,362c-.48,1.51-.32,2.93,1.37,3.31a2.34,2.34,0,0,0,1.75-.4c-2,.7-3.6,2.23-3,3.73.31.82,2,.5,2,.5-3.3,2.7-1.23,2.95-.68,3.19-1.06,1-.23,2.61,1.33,2.73,1.89.15,1.36-.28,2.59-.16h0a1.43,1.43,0,0,0,1.73,1.9,7.8,7.8,0,0,0,4.36-3c-.32.71-.1,1.81.82,1.68,1.7.13,2.69-1.17,3.68-2.11.83,1.54,2.44,2.24,4.38,2.48a3.27,3.27,0,0,0,3.24-1.47,2.42,2.42,0,0,0-.58-3.2,5.56,5.56,0,0,0,2,.76.91.91,0,0,0,.8-1.52,4.18,4.18,0,0,1-.73-1,6.12,6.12,0,0,0,3,.05,1.84,1.84,0,0,0,1.11-2.95,4.81,4.81,0,0,0-3.79-1.72c2.46-.28,3.06-.26,5-1.71.58-.84.73-2.11-.14-2.7a3,3,0,0,0-3.18.06,5.14,5.14,0,0,0,1.54-4.29,1.82,1.82,0,0,0-3.17-1.06,3.35,3.35,0,0,0-1,3,9.5,9.5,0,0,0,.78-4.62,2.34,2.34,0,0,0-1.88-2.16c-2.21-.44-4.79-.1-5,1.62C85.11,348,77.66,346.25,75.37,347.51Z" style="fill:#004BFF"></path><path d="M75.37,347.51c-.52,1.3.27,3.17,1.91,3.13-.71-1.54-5.06-1.93-6.28-.57-.52.59.08,1.65.71,2.13a7.27,7.27,0,0,0,2.13.81c-2.38-.85-6,2-6,4.15a1.89,1.89,0,0,0-2.44.91c-.26,1,.38,2.13,2.12,1.9A3.72,3.72,0,0,0,66.19,362c-.48,1.51-.32,2.93,1.37,3.31a2.34,2.34,0,0,0,1.75-.4c-2,.7-3.6,2.23-3,3.73.31.82,2,.5,2,.5-3.3,2.7-1.23,2.95-.68,3.19-1.06,1-.23,2.61,1.33,2.73,1.89.15,1.36-.28,2.59-.16h0a1.43,1.43,0,0,0,1.73,1.9,7.8,7.8,0,0,0,4.36-3c-.32.71-.1,1.81.82,1.68,1.7.13,2.69-1.17,3.68-2.11.83,1.54,2.44,2.24,4.38,2.48a3.27,3.27,0,0,0,3.24-1.47,2.42,2.42,0,0,0-.58-3.2,5.56,5.56,0,0,0,2,.76.91.91,0,0,0,.8-1.52,4.18,4.18,0,0,1-.73-1,6.12,6.12,0,0,0,3,.05,1.84,1.84,0,0,0,1.11-2.95,4.81,4.81,0,0,0-3.79-1.72c2.46-.28,3.06-.26,5-1.71.58-.84.73-2.11-.14-2.7a3,3,0,0,0-3.18.06,5.14,5.14,0,0,0,1.54-4.29,1.82,1.82,0,0,0-3.17-1.06,3.35,3.35,0,0,0-1,3,9.5,9.5,0,0,0,.78-4.62,2.34,2.34,0,0,0-1.88-2.16c-2.21-.44-4.79-.1-5,1.62C85.11,348,77.66,346.25,75.37,347.51Z" style="opacity:0.2"></path><path d="M84.77,374.2a9.83,9.83,0,0,1-6.19,6.09,10.09,10.09,0,0,0-3,1.13h0a1.84,1.84,0,0,0,.6,3.17A13.49,13.49,0,0,1,80.79,387c1.64,1.44,2.65,4.09,1.89,6.14-1.3,1.07-3.73.59-4.9-.61-.41-2.19-2.72-3.38-4.75-4.28-2.41-1.06-5.17-2.66-4.56-5.68a4.65,4.65,0,0,1,3-3.14c9.53-2.87,10.51-7.47,10.51-7.47,1.09,0,1.31-.39,2.4-.39A2.71,2.71,0,0,1,84.77,374.2Z" style="fill:#263238"></path><path d="M84.77,374.2a9.83,9.83,0,0,1-6.19,6.09,10.09,10.09,0,0,0-3,1.13h0a1.84,1.84,0,0,0,.6,3.17A13.49,13.49,0,0,1,80.79,387c1.64,1.44,2.65,4.09,1.89,6.14-1.3,1.07-3.73.59-4.9-.61-.41-2.19-2.72-3.38-4.75-4.28-2.41-1.06-5.17-2.66-4.56-5.68a4.65,4.65,0,0,1,3-3.14c9.53-2.87,10.51-7.47,10.51-7.47,1.09,0,1.31-.39,2.4-.39A2.71,2.71,0,0,1,84.77,374.2Z" style="fill:#fff;opacity:0.30000000000000004"></path><path d="M59.92,398.13l12.6-4.79A22.86,22.86,0,0,1,88,393.09l14.67,5h0a63.87,63.87,0,0,1-42.79,0Z" style="fill:#263238"></path><path d="M106.22,412.69l0,.13a7.07,7.07,0,0,1-6.68,4.75H63.06a7.08,7.08,0,0,1-6.69-4.76l0-.12a15.72,15.72,0,0,1-.08-10.16L58,397.15h46.5l1.77,5.38A15.78,15.78,0,0,1,106.22,412.69Z" style="fill:#004BFF"></path><g style="opacity:0.4"><path d="M106.22,412.69l0,.13a7.07,7.07,0,0,1-6.68,4.75H63.06a7.08,7.08,0,0,1-6.69-4.76l0-.12a15.72,15.72,0,0,1-.08-10.16L58,397.15h46.5l1.77,5.38A15.78,15.78,0,0,1,106.22,412.69Z" style="fill:#fff"></path></g><path d="M80.47,389.94a19,19,0,0,1,8.9-6.58c.27-.1.68-.77.44-.93A27.58,27.58,0,0,0,81,386.05a6.08,6.08,0,0,0-2.46,2.76C79.16,389.66,79.41,390,80.47,389.94Z" style="fill:#263238"></path><path d="M80.47,389.94a19,19,0,0,1,8.9-6.58c.27-.1.68-.77.44-.93A27.58,27.58,0,0,0,81,386.05a6.08,6.08,0,0,0-2.46,2.76C79.16,389.66,79.41,390,80.47,389.94Z" style="fill:#fff;opacity:0.30000000000000004"></path><path d="M77.73,344.43a2.23,2.23,0,0,0,1.9,3.13c-.7-1.54-5-1.93-6.27-.57-.53.59.08,1.65.71,2.13a7.27,7.27,0,0,0,2.13.81c-2.39-.85-6,2-6,4.15a1.91,1.91,0,0,0-2.45.91c-.26,1,.39,2.13,2.12,1.9A3.83,3.83,0,0,0,68.54,359c-.47,1.51-.32,2.93,1.38,3.31a2.36,2.36,0,0,0,1.75-.4c-2,.7-3.6,2.23-3,3.73.3.82,2,.5,2,.5-3.29,2.7-1.23,2.95-.67,3.19-1.07,1-.23,2.61,1.33,2.73,1.88.15,1.36-.28,2.59-.16h0a1.42,1.42,0,0,0,1.72,1.9,7.86,7.86,0,0,0,4.37-3c-.32.71-.11,1.81.81,1.68,1.7.13,2.69-1.17,3.69-2.11.83,1.55,2.44,2.24,4.37,2.48a3.29,3.29,0,0,0,3.25-1.47,2.43,2.43,0,0,0-.58-3.2,5.38,5.38,0,0,0,2,.76.91.91,0,0,0,.8-1.52,4,4,0,0,1-.74-1,6.16,6.16,0,0,0,3,.05,1.84,1.84,0,0,0,1.1-2.95A4.81,4.81,0,0,0,94,361.7c2.47-.28,3.06-.26,5-1.71.58-.84.73-2.11-.14-2.7a3,3,0,0,0-3.17.06,5.2,5.2,0,0,0,1.54-4.29A1.83,1.83,0,0,0,94.08,352a3.37,3.37,0,0,0-1,3,9.62,9.62,0,0,0,.78-4.62A2.35,2.35,0,0,0,92,348.22c-2.21-.44-4.8-.1-5,1.62C87.46,344.89,80,343.17,77.73,344.43Z" style="fill:#004BFF"></path><path d="M88.58,377.55a3.43,3.43,0,0,0-3.06-.14,2.75,2.75,0,0,0,1.76,2.17,2,2,0,0,0-2,1,1.8,1.8,0,0,0,.35,2.06l.22,0a1.52,1.52,0,0,0,1.83,2.32,2.54,2.54,0,0,0,1.81,1,2.43,2.43,0,0,0,1.86-.84c-.12.56.56,1.29,1.09,1.49a1.91,1.91,0,0,0,1.64-.23,4.29,4.29,0,0,0,1.18-1.22,4.89,4.89,0,0,0-.62-5.85C93.23,377.75,90.68,377.34,88.58,377.55Z" style="fill:#004BFF"></path><path d="M88.58,377.55a3.43,3.43,0,0,0-3.06-.14,2.75,2.75,0,0,0,1.76,2.17,2,2,0,0,0-2,1,1.8,1.8,0,0,0,.35,2.06l.22,0a1.52,1.52,0,0,0,1.83,2.32,2.54,2.54,0,0,0,1.81,1,2.43,2.43,0,0,0,1.86-.84c-.12.56.56,1.29,1.09,1.49a1.91,1.91,0,0,0,1.64-.23,4.29,4.29,0,0,0,1.18-1.22,4.89,4.89,0,0,0-.62-5.85C93.23,377.75,90.68,377.34,88.58,377.55Z" style="opacity:0.2"></path><path d="M92,375.28a2,2,0,0,1,2-2.74c.91.27,2.36,1.12,2.44,2.07a2.45,2.45,0,0,1-1.35,2.33c.91-.83,3.51-.2,3.88,1s-1.08,2.5-2.16,1.92c1.81-.05,3.89,2.47,3.7,4.27a3,3,0,0,1-4.32-.05c.88.59,1.71,2.19,1.16,3.1a2.15,2.15,0,0,1-2.79.7c-1.41-.81-2.17-2.48-1.1-3.71a3.7,3.7,0,0,0-3.63,1.91c-.64-1.12.15-2.84,1.28-3.46-1.62-.85-3.14-1.67-4.92-1.25.39-1.2,1.31-2.7,2.54-3a3.72,3.72,0,0,1,3.44,1.11,4.74,4.74,0,0,1-4-4.3C89.1,374.27,92.24,375.46,92,375.28Z" style="fill:#004BFF"></path><path d="M54.7,367.64a1.16,1.16,0,0,0-1.17.16.93.93,0,0,0,0,1.08,2.73,2.73,0,0,0,.84.78,1.24,1.24,0,0,0-1.11,1.65,2,2,0,0,0,1.86,1.23,1.12,1.12,0,0,0,.5,1.65,2.37,2.37,0,0,0,1.94-.16,13.55,13.55,0,0,1,1.81-.85,3,3,0,0,0,.35,1,1,1,0,0,0,.87.47.6.6,0,0,0,.54-.73,4.19,4.19,0,0,0,1.65,1,.78.78,0,0,0,.54,0c.3-.13.33-.56.19-.85s-.39-.52-.53-.81a.65.65,0,0,1,.17-.86A7.18,7.18,0,0,0,66.23,370c.16-.23.31-.54.15-.77a.68.68,0,0,0-.62-.2,6.48,6.48,0,0,0-2.41.56,4,4,0,0,1,.28-1.59,1.63,1.63,0,0,0-.21-1.55,1.3,1.3,0,0,0-1.65,0,3.74,3.74,0,0,0-1,1.49,2.68,2.68,0,0,0-1.3-1.41,1.73,1.73,0,0,0-1.84.22,1.29,1.29,0,0,0-.14,1.75c-.66.18-.86.33-1.39-.06A4.17,4.17,0,0,0,54.7,367.64Z" style="fill:#004BFF"></path><path d="M54.7,367.64a1.16,1.16,0,0,0-1.17.16.93.93,0,0,0,0,1.08,2.73,2.73,0,0,0,.84.78,1.24,1.24,0,0,0-1.11,1.65,2,2,0,0,0,1.86,1.23,1.12,1.12,0,0,0,.5,1.65,2.37,2.37,0,0,0,1.94-.16,13.55,13.55,0,0,1,1.81-.85,3,3,0,0,0,.35,1,1,1,0,0,0,.87.47.6.6,0,0,0,.54-.73,4.19,4.19,0,0,0,1.65,1,.78.78,0,0,0,.54,0c.3-.13.33-.56.19-.85s-.39-.52-.53-.81a.65.65,0,0,1,.17-.86A7.18,7.18,0,0,0,66.23,370c.16-.23.31-.54.15-.77a.68.68,0,0,0-.62-.2,6.48,6.48,0,0,0-2.41.56,4,4,0,0,1,.28-1.59,1.63,1.63,0,0,0-.21-1.55,1.3,1.3,0,0,0-1.65,0,3.74,3.74,0,0,0-1,1.49,2.68,2.68,0,0,0-1.3-1.41,1.73,1.73,0,0,0-1.84.22,1.29,1.29,0,0,0-.14,1.75c-.66.18-.86.33-1.39-.06A4.17,4.17,0,0,0,54.7,367.64Z" style="opacity:0.2"></path><path d="M61.77,373.73c-.46-2-1-2.27.65-3.48a4.15,4.15,0,0,0,3.66-1.3,4.54,4.54,0,0,0,1-3.93,9.72,9.72,0,0,0-5.64,5.08,3.81,3.81,0,0,0,.07-3.62A2.67,2.67,0,0,0,59,364.91l0,.21a2.88,2.88,0,0,0,.86,2.37,3.09,3.09,0,0,1,.54,3.14c-.58,1.46.25.72-1.08,1.55a2.44,2.44,0,0,0-.93-3.62,4.15,4.15,0,0,0-1.65,4.77c-.61-1.33-2-2.36-3-2.14-.66.14-3,1.58-2.8,3.52,1.42-.94,1.84-.8,3.41-.17a5.37,5.37,0,0,1,3.18,3.74C59.87,378.3,62.32,376.1,61.77,373.73Z" style="fill:#004BFF"></path><path d="M56.29,366.17a3.5,3.5,0,0,0,4.79,3.52c-.36-.61-.73-1.17-1.09-1.73a4,4,0,0,0-3.67-1.79Z" style="fill:#004BFF"></path><path d="M56.29,366.17a3.5,3.5,0,0,0,4.79,3.52c-.36-.61-.73-1.17-1.09-1.73a4,4,0,0,0-3.67-1.79Z" style="fill:#fff;opacity:0.1"></path><path d="M61.12,371.48a3.22,3.22,0,0,0,2.79,2.77,2.88,2.88,0,0,0-1.73-3.41C61.78,370.71,61.08,371.06,61.12,371.48Z" style="fill:#004BFF"></path><path d="M61.74,375.49a2.16,2.16,0,0,0,.37,4.1C63.32,378.47,62.93,376.62,61.74,375.49Z" style="fill:#004BFF"></path><path d="M54.52,378.63a2.85,2.85,0,0,1,2.18-3.09,1.86,1.86,0,0,1,.13,2.44A1.79,1.79,0,0,1,54.52,378.63Z" style="fill:#004BFF"></path><path d="M54.52,378.63a2.85,2.85,0,0,1,2.18-3.09,1.86,1.86,0,0,1,.13,2.44A1.79,1.79,0,0,1,54.52,378.63Z" style="fill:#fff;opacity:0.1"></path><path d="M86.45,351.49a4.07,4.07,0,0,0-1-1.56,1.43,1.43,0,0,0-1.71-.19,2,2,0,0,0-.59,1.53,3.33,3.33,0,0,0,.08,1.22,1.29,1.29,0,0,0,.81.87,4,4,0,0,0-1.69-.23,1.13,1.13,0,0,0-1.06.94,1.11,1.11,0,0,0,.7,1,3.15,3.15,0,0,0,1.26.21A2.17,2.17,0,0,0,82,357a.8.8,0,0,0,.17.74.86.86,0,0,0,.72.08,5.4,5.4,0,0,0,2.18-1,2.48,2.48,0,0,0-.11,1.17,1,1,0,0,0,.89.78,1,1,0,0,0,.82-.69,2.92,2.92,0,0,0,.07-1.14c.34,0,.43.39.58.7a2.41,2.41,0,0,0,2.29,1.33,2.13,2.13,0,0,0,1.91-1.76,1.94,1.94,0,0,0-1.45-2.11,3.44,3.44,0,0,1,1.59-.13,1.64,1.64,0,0,0,1.58-.39,1.14,1.14,0,0,0-.13-1.46,1.9,1.9,0,0,0-1.46-.52,5.27,5.27,0,0,0-1.56.35c.52,0,.58-.88.37-1.36a1.19,1.19,0,0,0-1.32-.58C88.62,351.08,86.7,351,86.45,351.49Z" style="fill:#fff;opacity:0.1"></path><path d="M79.18,360.67a4.06,4.06,0,0,0-2.08.3,1.41,1.41,0,0,0-.71,1.78,1.39,1.39,0,0,0,1.35.6,4.1,4.1,0,0,0,1.46-.54,1.46,1.46,0,0,0,.23,1.74,1,1,0,0,0,1.51-.42,5.31,5.31,0,0,1,.71,1.5,2.33,2.33,0,0,0,1,1.29,1,1,0,0,0,1.38-.46,1.15,1.15,0,0,1,.12-.4c.15-.21.5-.16.72,0a3.67,3.67,0,0,0,.62.5,1,1,0,0,0,1.25-.77,2.93,2.93,0,0,0-.23-1.64,3.76,3.76,0,0,0-.69-1.35,1.25,1.25,0,0,0-1.38-.37.76.76,0,0,0-.22,1.24c-.12-.51-.69-.76-1.2-.91a4.41,4.41,0,0,0-1.58-.1,1.55,1.55,0,0,0-.28-1.88A1.65,1.65,0,0,0,79.18,360.67Z" style="fill:#fff;opacity:0.1"></path><path d="M89.73,361.72a3.56,3.56,0,0,0-1.42,3.37v0a1.35,1.35,0,0,0,.66,1.12,1,1,0,0,0,1.21-.64,3,3,0,0,0,.07-1.49,1.37,1.37,0,0,0,.63.75,1,1,0,0,0,1.19,0,.61.61,0,0,0-.3-1,4,4,0,0,0,2.72-.09c.27-.11.57-.28.63-.57s-.26-.68-.6-.84a2.32,2.32,0,0,1-1-.57c.43-.15.58-.61.75-1a1,1,0,0,0-.38-1.19,1.56,1.56,0,0,0-1.42.26A23.63,23.63,0,0,0,89.73,361.72Z" style="fill:#fff;opacity:0.1"></path><path d="M80.09,352.33a6.22,6.22,0,0,0-4.31.59,2,2,0,0,0-.82.7.85.85,0,0,0,.07,1,1.34,1.34,0,0,0-1.81.37,1.11,1.11,0,0,0,.77,1.47,1.15,1.15,0,0,0-.77,1.6,2,2,0,0,0,1.67,1.15A5.82,5.82,0,0,0,77,359a1.57,1.57,0,0,0-.8-2.15c.35.16.61-.14.82-.46a.84.84,0,0,0-.15-1.05,2.83,2.83,0,0,0,3.46-1.4C80.59,353.43,80.63,352.46,80.09,352.33Z" style="fill:#fff;opacity:0.1"></path></g><g id="freepik--Character--inject-7"><path d="M325.85,280.47s11.3,9,12,8.84c4-.82,4.74-1.17,9.09-2a3.67,3.67,0,0,0,2.21-5.81l-.51-.68a3.66,3.66,0,0,0-3.57-1.42l-6.37,1.11-9.23-5.93Z" style="fill:#ff8b7b"></path><path d="M272.89,211.34c3-1.37,7.86,4.16,9.35,7.12,3.92,7.81,18.7,32.43,18.7,32.43,1.73,1,24.17,18.78,29.58,21.57,2.81,1.45-2.74,11.38-5.45,9.75-5.21-3.14-10.5-6.14-15.82-9.09-1.75-1-3.5-1.95-5.26-2.89l-5.34-2.89a46.71,46.71,0,0,1-10.89-8.19,47.53,47.53,0,0,1-8.25-11l-.81-1.51-.69-1.33-1.39-2.67q-1.38-2.67-2.82-5.32c-2.81-5.26-5.68-10.49-8.69-15.66a5.59,5.59,0,0,1,2.51-7.91Z" style="fill:#263238"></path><path d="M320.13,360.81C306,371.13,266,352.55,246.72,342.7c-19.32,9.85-59.32,28.43-73.42,18.11-23.21-17,8.63-42.84,16.89-48.08s17.47-8.75,26.62-12.21,20,2.31,29.91,2.52c9.88-.22,20.67-6,29.9-2.52s18.37,7,26.62,12.21S343.35,343.8,320.13,360.81Z" style="fill:#004BFF"></path><path d="M251,323.61c-14.17.55-29.82,4.47-43.74,7.12-2,.39-9.26,4.46-9.62,6.49C252.62,323.61,197.68,337.22,251,323.61Z" style="opacity:0.2"></path><path d="M248.52,324.07c14.16.56,29.82,4.48,43.74,7.13,2,.38,9.26,4.45,9.62,6.48C246.94,324.07,301.88,337.68,248.52,324.07Z" style="opacity:0.2"></path><path d="M256.74,329.24l-1.92,4.15h0l-1.8,3.88h0l-.31.67h0l-2.19-1.45-.17-.12-1.35-.9-1.75-1.16-.66-.43v0l-4.75-3.16-1.95-4.22-2.62,1.11-.08,0-1.14-.76,7.14-4.93,1.84,1,1.44.78.36.19,3.48,1.87.72.4,1.84,1Z" style="fill:#ff8b7b"></path><polygon points="252.7 337.96 247.01 334.8 251.06 326.07 256.74 329.23 252.7 337.96" style="opacity:0.2"></polygon><path d="M251.81,346.93a68.34,68.34,0,0,0-6.78-3.68l9.84-20.48,7,2.45Z" style="fill:#004BFF"></path><path d="M251.81,346.93a68.34,68.34,0,0,0-6.78-3.68l9.84-20.48,7,2.45Z" style="fill:#fff;opacity:0.2"></path><path d="M246.92,323.5l-.24.1-.23.1-6.58,2.79-2.62,1.11-.08,0a3.54,3.54,0,0,1-.85.22,3.71,3.71,0,0,1-.47,0,1.45,1.45,0,0,1-.36,0h-.07a3.42,3.42,0,0,1-.44,0h-.18l-.7-.1-.95-.13c-6.26-.81-7.92-.39-15,.93-1.68.32-2.35-3.72,1.28-5.26,6-2.55,6.15-2.28,11.28-4.45,4.38-1.85,9.32-4.19,12.78-5.73a1.46,1.46,0,0,1,2,1l1.86,8.49A.8.8,0,0,1,246.92,323.5Z" style="fill:#263238"></path><polygon points="253.61 322.08 260.75 327.01 244.07 338.11 240.03 329.39 253.61 322.08" style="fill:#ff8b7b"></polygon><polygon points="244.08 338.11 249.76 334.95 245.72 326.23 240.04 329.38 244.08 338.11" style="opacity:0.2"></polygon><path d="M250.22,340.9s-2.06,1.49-4.16,2.93l-2,1.36-6.51-14.07-2-4.22-.7-1.53,5.85-2,1.16-.41.51,1.09.13.29,1.36,2.94,0,.05,1.25,2.68,1.14,2.48,1.48,3.19.15.32.8,1.73h0Z" style="fill:#004BFF"></path><path d="M250.22,340.9s-2.06,1.49-4.16,2.93l-2,1.36-6.51-14.07-2-4.22-.7-1.53,5.85-2,1.16-.41.51,1.09.13.29,1.36,2.94,0,.05,1.25,2.68,1.14,2.48,1.48,3.19.15.32.8,1.73h0Z" style="fill:#fff;opacity:0.2"></path><path d="M259.53,327.74l-9.67-4.09a.79.79,0,0,1-.47-.91l1.86-8.5a1.45,1.45,0,0,1,2-1c3.46,1.54,8.41,3.87,12.79,5.73,5.12,2.17,5.27,1.9,11.28,4.45,3.63,1.53,2.95,5.58,1.28,5.26-7.62-1.44-8.94-1.8-16.61-.7A4.52,4.52,0,0,1,259.53,327.74Z" style="fill:#263238"></path><path d="M229.45,209.25c12.06-1.48,29.17-1.35,40.53.63a12.88,12.88,0,0,1,10.58,11.68c1.42,17.32-2.42,47.6-5.72,78.07-26.72,9-53.83-.12-53.83-.12-.32-3.22.44-10.28,1.53-17.82a119,119,0,0,0-1.38-42.15c-1.06-4.94-2.1-10.15-2.91-15.64A12.9,12.9,0,0,1,229.45,209.25Z" style="fill:#263238"></path><path d="M219.64,232.1s2.88,14,3.28,17.9,5.39-24.32,5.39-24.32Z" style="opacity:0.2"></path><path d="M172.13,282s-11.54,9.2-12.31,9c-4.07-.84-4.84-1.2-9.28-2.09a3.76,3.76,0,0,1-2.27-5.94l.53-.7a3.76,3.76,0,0,1,3.65-1.44L159,282l9.42-6.06Z" style="fill:#ff8b7b"></path><path d="M226.25,211.34c-3.08-1.4-8,4.26-9.55,7.28-4,8-19.11,33.15-19.11,33.15-1.77,1-24.7,19.19-30.23,22-2.87,1.48,2.8,11.63,5.57,10,5.32-3.21,10.73-6.28,16.16-9.29,1.79-1,3.58-2,5.38-3l5.46-2.95a47.76,47.76,0,0,0,11.13-8.38,48.61,48.61,0,0,0,8.43-11.26l.83-1.54L221,246l1.42-2.73q1.41-2.73,2.88-5.43c2.87-5.38,5.81-10.72,8.89-16a5.72,5.72,0,0,0-2.57-8.08Z" style="fill:#263238"></path><path d="M240,185.39c1.66,7.15,3.45,20.27-1.83,25.16,4.26,3.8,10.42,7.65,15.26,6.94,6.09-.9,9.29-5.25,8.46-7.38-8.62-1.75-8.34-7.7-7-13.3Z" style="fill:#ff8b7b"></path><path d="M246,190.05l8.83,6.75a21.44,21.44,0,0,0-.65,4c-3.28-.38-7.44-2.88-8.8-6.21C244.56,192.49,245.19,190.31,246,190.05Z" style="opacity:0.2"></path><path d="M257.59,164.06c4.15-4.8,10.82-11.25,3.35-17a10.39,10.39,0,0,1-9.28-2.17c-3.78-3.13-9.12-3-12.13-3.13a6.78,6.78,0,0,1,1.27,3.94c-.67,8-7.25,15.72-9.75,23.2a10,10,0,0,0,0,6.87,12.58,12.58,0,0,0,6.08,6,178.32,178.32,0,0,1,17-10.26c.37,0,.46-.6.51-.95A13.07,13.07,0,0,1,257.59,164.06Z" style="fill:#263238"></path><path d="M237.11,174.62c1,9.61,1.11,15.29,6.2,20,7.65,7.12,19.36,2.19,21.24-7.54,1.69-8.75-.25-23-9.86-26.43A13.18,13.18,0,0,0,237.11,174.62Z" style="fill:#ff8b7b"></path><path d="M258.64,163c-1.68-.65-1.47-.61-3.1.14-4.06-2-9.09-.57-10.73-.09a25.51,25.51,0,0,1,.88,5,4.24,4.24,0,0,1-.55,2.92c-.61.83-1.69,1.15-2.51,1.78a5.19,5.19,0,0,0-1.69,4.5c.14,1.66-1.82,2.62-3.75,2.85a11.28,11.28,0,0,1-1.87-6c-2.26-8,7.3-14.6,7.12-15a26.54,26.54,0,0,1,14.9.73A8.31,8.31,0,0,1,258.64,163Z" style="fill:#263238"></path><path d="M233.32,182.85a9.2,9.2,0,0,0,4.63,5.27c2.91,1.4,4.92-1.06,4.59-4.1-.3-2.73-2.18-6.75-5.32-6.88S232.38,180,233.32,182.85Z" style="fill:#ff8b7b"></path><path d="M257.55,177s2.38,4.26,4.63,6.16c-1.2,1.47-3.63,1.2-3.63,1.2Z" style="fill:#ff5652"></path><path d="M256.25,188.49a6.44,6.44,0,0,1-4.55-2.38.23.23,0,0,1,.05-.32.23.23,0,0,1,.32.05,6.23,6.23,0,0,0,5.18,2.21.23.23,0,0,1,.24.22.22.22,0,0,1-.22.24A6.84,6.84,0,0,1,256.25,188.49Z" style="fill:#263238"></path><path d="M254.55,178.46c-2.88.88-4.34-.2-4.44-.26a.23.23,0,1,1,.25-.39s1.83,1.3,5-.13a.23.23,0,0,1,.3.11.22.22,0,0,1-.11.31A7.13,7.13,0,0,1,254.55,178.46Z" style="fill:#263238"></path><path d="M264.05,177.34c-2.73,1.28-3.87.42-4,.37a.23.23,0,0,1-.12-.3.23.23,0,0,1,.31-.12s1.54,1,4.43-.84a.23.23,0,0,1,.25.39A6.74,6.74,0,0,1,264.05,177.34Z" style="fill:#263238"></path><path d="M250.26,173.35a.49.49,0,0,1-.22-.08.45.45,0,0,1-.11-.64,4.6,4.6,0,0,1,3.67-2.07.47.47,0,0,1,.45.47.46.46,0,0,1-.48.45h0a3.64,3.64,0,0,0-2.88,1.67A.49.49,0,0,1,250.26,173.35Z" style="fill:#263238"></path><path d="M264.41,173.07a.46.46,0,0,1-.36-.24,3.61,3.61,0,0,0-2.69-2,.47.47,0,0,1-.42-.5.44.44,0,0,1,.49-.42,4.55,4.55,0,0,1,3.43,2.45.45.45,0,0,1-.19.62A.48.48,0,0,1,264.41,173.07Z" style="fill:#263238"></path><path d="M252.5,221.67l-6-6.19c1.69-.26,3.22-1,4.91-1.26C252.88,216.36,252.93,219.11,252.5,221.67Z" style="fill:#004BFF"></path><path d="M252.5,221.67l-6-6.19c1.69-.26,3.22-1,4.91-1.26C252.88,216.36,252.93,219.11,252.5,221.67Z" style="opacity:0.2"></path><path d="M251.78,214.63c-3.36,2.12-2.86,2.45-6.34,6.74-3.7-3.46-10.07-7.78-12.71-12.1a11,11,0,0,1,5.2-6.07A52.4,52.4,0,0,1,251.78,214.63Z" style="fill:#004BFF"></path><g style="opacity:0.2"><path d="M251.78,214.63c-3.36,2.12-2.86,2.45-6.34,6.74-3.7-3.46-10.07-7.78-12.71-12.1a11,11,0,0,1,5.2-6.07A52.4,52.4,0,0,1,251.78,214.63Z" style="fill:#fff"></path></g><path d="M253.91,213.89a12.2,12.2,0,0,0-1.37,7.54c1.75-2.3,3.36-4.57,5.11-6.87A7.43,7.43,0,0,0,253.91,213.89Z" style="fill:#004BFF"></path><path d="M253.91,213.89a12.2,12.2,0,0,0-1.37,7.54c1.75-2.3,3.36-4.57,5.11-6.87A7.43,7.43,0,0,0,253.91,213.89Z" style="opacity:0.2"></path><path d="M260,220.78a69.77,69.77,0,0,1-6.27-6.7,13.1,13.1,0,0,0,1.52-9,5.91,5.91,0,0,1,6.75,2.38C264.1,210.76,261.32,217.14,260,220.78Z" style="fill:#004BFF"></path><path d="M260,220.78a69.77,69.77,0,0,1-6.27-6.7,13.1,13.1,0,0,0,1.52-9,5.91,5.91,0,0,1,6.75,2.38C264.1,210.76,261.32,217.14,260,220.78Z" style="fill:#fff;opacity:0.2"></path><path d="M246.08,360.33a21,21,0,0,1-8.31-1.69.5.5,0,0,1-.27-.66.51.51,0,0,1,.66-.26,20.27,20.27,0,0,0,16.75-.41.5.5,0,0,1,.44.9A21.15,21.15,0,0,1,246.08,360.33Z" style="fill:#004BFF"></path><path d="M244.71,367.55a52.44,52.44,0,0,1-18.64-3.39.5.5,0,1,1,.36-.94,51.82,51.82,0,0,0,36.87-.12.5.5,0,1,1,.36.94A52.37,52.37,0,0,1,244.71,367.55Z" style="fill:#004BFF"></path></g></svg>
