<?xml version="1.0" standalone="no"?>
<!DOCTYPE svg PUBLIC "-//W3C//DTD SVG 20010904//EN"
 "http://www.w3.org/TR/2001/REC-SVG-20010904/DTD/svg10.dtd">
<svg version="1.0" xmlns="http://www.w3.org/2000/svg"
 width="438.000000pt" height="104.000000pt" viewBox="0 0 438.000000 104.000000"
 preserveAspectRatio="xMidYMid meet">

<g transform="translate(0.000000,104.000000) scale(0.100000,-0.100000)"
fill="#000000" stroke="none">
<path d="M1425 520 c0 -289 1 -407 2 -262 2 144 2 380 0 525 -1 144 -2 26 -2
-263z"/>
<path d="M495 910 c-70 -16 -115 -76 -115 -151 0 -47 36 -135 63 -158 10 -7
17 -21 17 -30 0 -10 7 -26 15 -37 8 -10 15 -28 15 -39 0 -24 94 -115 118 -115
10 0 27 6 37 14 17 12 22 12 39 0 11 -8 28 -14 38 -14 25 0 115 90 123 123 4
15 11 30 16 33 5 3 9 14 9 24 0 10 11 32 25 48 58 69 73 175 34 238 -49 80
-157 90 -233 24 l-33 -30 -19 21 c-37 41 -99 61 -149 49z m83 -34 c15 -8 38
-26 51 -40 14 -14 29 -26 34 -26 5 0 27 16 48 35 47 42 79 51 129 36 40 -12
72 -47 83 -91 8 -33 -9 -107 -34 -141 -25 -36 -35 -36 -43 -3 -4 15 -27 46
-51 70 -45 45 -77 55 -115 34 -13 -7 -21 -7 -25 0 -16 26 -105 1 -105 -29 0
-4 -11 -13 -25 -19 -15 -7 -28 -24 -33 -44 -11 -45 -33 -41 -59 12 -42 82 -25
172 39 203 41 20 71 21 106 3z m53 -146 c17 -10 19 -23 19 -153 0 -147 -5
-167 -41 -167 -28 0 -33 20 -10 44 20 21 28 46 15 46 -3 0 -17 -9 -31 -20 -31
-24 -63 -12 -63 24 0 13 -7 29 -15 36 -19 16 -19 56 -1 67 8 4 16 22 18 38 2
24 8 31 30 33 19 2 30 -3 38 -17 6 -12 15 -21 20 -21 18 0 10 40 -10 52 -29
18 -25 39 8 47 2 1 12 -4 23 -9z m110 -1 c20 -10 20 -11 -5 -34 -26 -24 -35
-55 -16 -55 5 0 14 9 20 20 16 31 58 26 71 -7 6 -16 15 -36 20 -45 13 -25 11
-52 -3 -66 -7 -7 -13 -22 -13 -33 0 -12 -10 -28 -22 -36 -19 -13 -24 -12 -42
6 -12 12 -25 21 -31 21 -19 0 -10 -28 14 -48 19 -14 22 -22 13 -31 -6 -6 -18
-11 -27 -11 -35 0 -40 21 -40 161 0 112 3 141 16 153 18 19 20 19 45 5z"/>
<path d="M256 704 c-13 -12 -16 -40 -16 -140 0 -123 0 -125 36 -196 22 -43 63
-99 105 -144 62 -66 69 -77 69 -113 l0 -41 95 0 95 0 0 99 c0 114 4 107 -129
244 -75 76 -96 88 -119 65 -8 -8 -15 -8 -27 2 -11 10 -15 34 -15 107 0 52 -5
103 -10 114 -13 23 -62 26 -84 3z m64 -115 l0 -99 75 -95 c71 -88 95 -110 95
-85 0 6 -18 33 -40 61 -39 50 -52 90 -27 88 6 0 51 -44 100 -96 l87 -95 0 -89
0 -89 -54 0 c-75 0 -86 6 -86 47 0 29 -10 46 -64 101 -35 37 -80 97 -100 133
-36 66 -36 66 -36 191 0 92 3 128 13 131 31 11 37 -5 37 -104z"/>
<path d="M997 702 c-13 -15 -17 -39 -17 -111 0 -51 -5 -101 -10 -112 -10 -17
-13 -18 -26 -4 -9 8 -24 15 -34 15 -20 0 -200 -188 -213 -223 -4 -11 -6 -59
-5 -106 l3 -86 91 -3 91 -3 6 47 c4 40 13 55 69 113 36 36 81 97 102 134 36
68 36 68 36 193 0 69 -5 134 -10 145 -14 25 -61 25 -83 1z m63 -138 c0 -120
-1 -127 -31 -187 -17 -34 -62 -94 -100 -134 -56 -59 -68 -78 -71 -110 l-3 -38
-65 0 -65 0 -3 85 -2 85 93 99 c59 64 97 97 105 92 18 -11 16 -18 -33 -82 -47
-63 -52 -74 -32 -74 6 1 45 43 85 95 l72 94 0 93 c0 94 9 122 36 111 11 -4 14
-33 14 -129z"/>
<path d="M2358 663 c-470 -3 -478 -4 -478 -23 0 -18 7 -20 65 -20 l65 0 0 -58
c0 -63 -19 -102 -50 -102 -11 0 -24 9 -30 20 -9 17 -14 18 -31 9 -25 -13 -21
-35 21 -126 33 -72 77 -133 95 -133 7 0 18 7 25 15 11 13 9 20 -12 43 -34 35
-68 93 -68 113 0 21 29 29 103 29 54 0 57 -1 57 -25 0 -38 21 -75 51 -91 36
-18 61 -18 105 1 40 17 38 23 18 -58 -6 -26 -4 -28 17 -25 22 3 27 16 65 168
23 91 44 177 48 193 l6 27 89 0 89 0 6 -33 c6 -34 -6 -90 -25 -113 -17 -20
-47 -17 -59 6 -9 16 -15 18 -30 10 -11 -6 -20 -15 -20 -20 0 -25 46 -126 81
-180 42 -61 58 -71 78 -46 10 11 4 25 -29 68 -41 54 -58 93 -45 106 3 4 47 9
96 10 83 4 89 3 89 -16 0 -31 38 -71 73 -77 19 -4 51 0 77 9 24 8 46 14 48 12
3 -4 -8 -53 -24 -108 -4 -14 1 -18 18 -18 22 0 26 11 72 195 l48 195 29 0 c18
0 29 -5 29 -14 0 -7 -18 -88 -40 -180 -22 -91 -40 -173 -40 -181 0 -8 9 -15
19 -15 17 0 24 19 49 128 17 70 33 142 37 160 4 18 9 32 11 29 2 -2 13 -60 24
-128 11 -68 22 -139 25 -156 11 -65 35 -41 129 128 48 88 90 158 92 156 3 -2
-7 -72 -21 -155 -14 -82 -25 -152 -25 -156 0 -12 41 -6 45 7 9 26 61 377 57
382 -3 3 -18 5 -33 5 -26 0 -35 -13 -116 -159 -48 -88 -89 -158 -92 -156 -3 4
-50 285 -51 308 0 4 -13 7 -30 7 -20 0 -30 5 -30 15 0 11 -13 15 -53 15 l-53
0 -28 -117 c-30 -133 -45 -152 -122 -161 -79 -9 -100 42 -38 92 47 38 74 83
74 127 0 40 -25 70 -56 67 -10 -2 -234 -4 -496 -5z m22 -55 c0 -7 -5 -30 -11
-51 -10 -35 -12 -37 -27 -24 -45 41 -118 28 -174 -28 -29 -30 -39 -35 -82 -35
-42 0 -47 2 -40 18 4 9 10 43 12 75 l4 57 159 0 c121 0 159 -3 159 -12z m382
-27 c-2 -22 1 -42 7 -46 18 -11 42 15 39 43 -3 28 21 48 47 38 13 -5 16 -13
10 -34 -17 -70 -81 -111 -172 -112 -52 0 -52 0 -43 26 6 14 10 48 10 75 l0 49
53 0 53 0 -4 -39z m-433 -95 c21 -22 21 -26 8 -58 -20 -48 -61 -78 -106 -78
-21 0 -42 5 -49 12 -27 27 -4 114 35 137 33 19 88 13 112 -13z"/>
<path d="M4195 638 c-3 -7 -11 -40 -18 -73 -12 -49 -18 -60 -33 -58 -67 7
-145 -42 -178 -111 -18 -39 -21 -108 -5 -137 23 -45 87 -43 137 3 l22 21 0
-27 c0 -23 4 -27 23 -24 16 2 21 9 20 26 -2 12 15 105 36 207 37 175 38 185
20 185 -11 0 -22 -6 -24 -12z m-50 -177 c12 -21 -9 -95 -39 -135 -38 -49 -74
-70 -93 -54 -18 14 -16 93 2 129 26 49 112 89 130 60z"/>
<path d="M3591 613 c-12 -24 1 -46 25 -41 13 2 19 12 19 28 0 30 -30 39 -44
13z"/>
<path d="M3825 503 c-11 -3 -35 -16 -52 -30 l-33 -24 0 25 c0 33 -27 35 -40 4
-10 -26 -50 -209 -50 -233 0 -8 9 -15 19 -15 16 0 22 14 36 76 14 64 23 82 56
115 38 38 80 51 94 30 3 -6 -4 -51 -15 -102 -25 -115 -25 -119 0 -119 12 0 21
8 25 23 2 12 11 53 20 90 21 97 20 133 -7 151 -12 9 -25 15 -28 15 -3 -1 -14
-4 -25 -6z"/>
<path d="M3565 478 c-3 -13 -14 -66 -25 -118 -12 -52 -23 -103 -26 -112 -4
-14 0 -18 19 -18 23 0 25 7 51 128 14 70 26 130 26 135 0 19 -40 5 -45 -15z"/>
</g>
</svg>
